<?xml version="1.0" encoding="iso-8859-1"?>

<svg fill="#000000" version="1.1" id="Layer_1" xmlns="http://www.w3.org/2000/svg" xmlns:xlink="http://www.w3.org/1999/xlink" 
	 viewBox="0 0 512 512" xml:space="preserve">
<g>
	<g>
		<rect x="383.815" y="331.685" width="16.762" height="15.715"/>
	</g>
</g>
<g>
	<g>
		<rect x="416.292" y="331.685" width="15.715" height="15.715"/>
	</g>
</g>
<g>
	<g>
		<rect x="447.722" y="331.685" width="16.762" height="15.715"/>
	</g>
</g>
<g>
	<g>
		<path d="M432.484,75.769c-11.77-23.694-36.218-40.023-64.42-40.023s-52.649,16.33-64.42,40.023H0v311.885h512V75.769H432.484z
			 M368.064,51.46c30.978,0,56.18,25.202,56.18,56.18c0,24.031-36.153,79.085-56.181,106.829
			c-20.028-27.74-56.178-82.785-56.178-106.829C311.885,76.661,337.087,51.46,368.064,51.46z M385.268,235.713
			c0,8.909-7.248,16.157-16.157,16.157c-8.909,0-16.157-7.248-16.157-16.157c0-3.761,1.337-7.374,3.697-10.248
			c3.021,4.169,4.924,6.69,5.145,6.983l6.267,8.29l6.267-8.29c0.243-0.321,2.515-3.334,6.077-8.271
			C383.442,227.156,385.268,231.28,385.268,235.713z M319.667,168.939l-43.655,43.655l-48.923-48.922l70.558-70.557
			c-0.967,4.692-1.475,9.549-1.475,14.525C296.17,121.223,304.067,141.802,319.667,168.939z M237.03,91.484l-69.081,69.082
			L98.868,91.484H237.03z M76.643,91.484l91.307,91.305l91.305-91.305h17.798l-72.189,72.189l71.147,71.146l51.973-51.971
			c0.464,0.749,0.926,1.497,1.401,2.256c6.357,10.164,12.668,19.577,18.013,27.295c-6.458,6.02-10.157,14.475-10.157,23.315
			c0,17.573,14.297,31.871,31.871,31.871c17.574,0,31.871-14.297,31.871-31.871c0-9.623-4.36-18.509-11.465-24.453
			c5.172-7.497,11.179-16.489,17.226-26.158c22.039-35.238,33.215-61.301,33.215-77.463c0-5.556-0.655-10.959-1.853-16.157h10.661
			v88.287h47.518v24.096h-35.421L333.124,331.679h-10.069l-87.068-87.066l-87.067,87.066h-33.807l75.954-75.954L26.827,91.484
			H76.643z M300.83,331.679H171.146l64.842-64.843L300.83,331.679z M15.715,102.596l153.13,153.129l-75.956,75.954H15.715V102.596z
			 M496.284,331.679h-16.089v15.715h16.089v24.545H15.715v-24.545h352.383v-15.715h-12.756l112.033-112.098h28.91V331.679z
			 M496.285,164.056h-31.803V91.484h31.803V164.056z"/>
	</g>
</g>
<g>
	<g>
		<polygon points="375.431,100.15 375.431,76.054 359.716,76.054 359.716,100.15 335.621,100.15 335.621,115.864 359.716,115.864 
			359.716,139.96 375.431,139.96 375.431,115.864 400.575,115.864 400.575,100.15 		"/>
	</g>
</g>
<g>
	<g>
		<rect x="359.719" y="147.288" width="16.762" height="15.715"/>
	</g>
</g>
<g>
	<g>
		<path d="M335.621,460.54c-8.381,0-15.715-7.651-15.715-16.706v-48.248h-15.715v48.248c0,6.107,1.714,11.824,4.636,16.706H203.172
			c2.922-4.882,4.636-10.599,4.636-16.706v-48.248h-15.715v48.248c0,9.056-7.333,16.706-15.715,16.706h-32.477v15.715h224.196
			V460.54H335.621z"/>
	</g>
</g>
<g>
	<g>
		<path d="M272.156,395.586c0,9.429-7.248,16.157-16.157,16.157c-8.909,0-16.157-6.728-16.157-16.157h-15.715
			c0,17.81,14.297,31.871,31.871,31.871c17.574,0,31.872-14.061,31.872-31.871H272.156z"/>
	</g>
</g>
<g>
	<g>
		<polygon points="47.518,300.25 47.518,179.771 31.803,179.771 31.803,315.965 64.28,315.965 64.28,300.25 		"/>
	</g>
</g>
<g>
	<g>
		<rect x="71.617" y="300.255" width="16.762" height="15.715"/>
	</g>
</g>
</svg>
