<?xml version="1.0" encoding="iso-8859-1"?>
<!-- Uploaded to: SVG Repo, www.svgrepo.com, Generator: SVG Repo Mixer Tools -->
<svg fill="#000000" version="1.1" id="Layer_1" xmlns="http://www.w3.org/2000/svg" xmlns:xlink="http://www.w3.org/1999/xlink" 
	 viewBox="0 0 512 512" xml:space="preserve">
<g>
	<g>
		<path d="M456.62,395.746V260.18h-104.49V275.9h-47.652v48.018h-16.087v71.827h-8.359V251.82H136.882v56.424h15.673v-40.751h31.347
			v24.033h48.065v-24.033h32.392v56.424h-56.424v62.694h56.424v9.133h-80.031v-79.897H72.778v79.897H24.839v39.642h463.097v-39.642
			H456.62z M216.294,275.853h-16.718v-8.359h16.718V275.853z M320.153,291.574h7.945v8.312h15.673v-8.312h8.359v23.986h15.673
			v-39.706h73.143v15.673H407.51V307.2h33.437v88.546h-8.359v-71.827H320.153V291.574z M376.163,339.592v15.673h-32.392v-15.673
			H376.163z M304.065,339.592h24.033v31.347h63.739v-31.347h25.078v56.154H304.065V339.592z M223.608,370.939v-31.347h40.751v8.359
			h-15.673v15.673h15.673v7.314H223.608z M120.163,331.522h16.718v16.429h-16.718V331.522z M88.452,331.522h16.038v32.102h48.065
			v-32.102h16.1v64.224H88.452V331.522z M472.263,419.715H40.513v-8.295h431.75V419.715z"/>
	</g>
</g>
<g>
	<g>
		<polygon points="463.935,4.18 463.935,19.853 456.62,19.853 456.62,35.527 463.935,35.527 463.935,195.396 479.608,195.396 
			479.608,19.853 496.327,19.853 496.327,492.147 479.608,492.147 479.608,444.082 463.935,444.082 463.935,507.82 512,507.82 
			512,4.18 		"/>
	</g>
</g>
<g>
	<g>
		<rect x="33.437" y="251.82" width="15.673" height="135.837"/>
	</g>
</g>
<g>
	<g>
		<rect x="463.935" y="251.82" width="15.673" height="135.837"/>
	</g>
</g>
<g>
	<g>
		<polygon points="49.11,19.853 49.11,4.18 0,4.18 0,507.82 49.11,507.82 49.11,444.082 33.437,444.082 33.437,492.147 
			15.673,492.147 15.673,19.853 33.437,19.853 33.437,195.396 49.11,195.396 49.11,35.527 57.469,35.527 57.469,19.853 		"/>
	</g>
</g>
<g>
	<g>
		<path d="M456.62,203.992V68.963H296.751v71.053h15.673v-24.033h39.706V100.31h-39.706V84.637h128.522v119.357H407.51v-55.618
			H280.033v-24.033h-47.766V52.188H64.789v151.804h-39.95v39.642h463.097v-39.642H456.62z M319.739,164.049h32.392v7.314h-32.392
			V164.049z M280.033,164.049h24.033v22.988h63.739v-22.988h24.033v39.944H280.033V164.049z M264.359,140.016v24.033h-31.347v15.673
			h31.347v24.271h-96.131v-8.597h31.347v-47.02h-31.347v-8.359H264.359z M168.229,179.722v-15.673h15.673v15.673H168.229z
			 M128.522,67.862h39.706v16.775h-39.706V67.862z M80.462,67.862h32.387v32.448h71.053V67.862h32.691v56.481h-64.038v79.65H80.462
			V67.862z M40.513,227.962v-8.295h431.75v8.295H40.513z"/>
	</g>
</g>
<g>
	<g>
		<rect x="328.098" y="124.343" width="24.033" height="15.673"/>
	</g>
</g>
<g>
	<g>
		<rect x="97.176" y="131.657" width="39.706" height="15.673"/>
	</g>
</g>
<g>
	<g>
		<rect x="97.176" y="155.69" width="22.988" height="15.673"/>
	</g>
</g>
<g>
	<g>
		<rect x="64.784" y="19.853" width="383.478" height="15.673"/>
	</g>
</g>
</svg>