<?xml version="1.0" encoding="iso-8859-1"?>

<svg fill="#000000" version="1.1" id="Layer_1" xmlns="http://www.w3.org/2000/svg" xmlns:xlink="http://www.w3.org/1999/xlink" 
	 viewBox="0 0 512 512" xml:space="preserve">
<g>
	<g>
		<path d="M487.967,432.719v-0.001V162.963L256,63.608L24.033,162.963v269.756H0v15.673h512v-15.673H487.967z M128.522,432.718
			h-49.11v-104.49h49.11V432.718z M207.935,432.718h-32.097v-32.392h8.065v7.314h15.673v-7.314h8.359V432.718z M231.967,432.718
			h-8.359v-48.065h-47.771v-32.392h16.424v8.359h15.673v-8.359h24.033V432.718z M199.575,319.869v-8.359h8.359v25.078h-32.097
			V311.51h8.065v8.359H199.575z M376.161,432.292h-32.326v-32.326h8.295v7.675h15.673v-7.675h8.357V432.292z M432.161,391.967
			h-16.292v15.673h16.292v25.078h-40.327v-48.426h-63.672v48.426h-32.457v-49.11h16.718v-15.673h-16.718v-8.359h40.751v16.718
			h15.673v-32.392h-16.718v-24.033h16.718v8.359h15.673v-8.359h16.718v8.359h-16.718v48.065h15.673v-32.392h16.718v16.718h15.673
			v-16.718h16.292V391.967z M432.161,328.228h-31.966v-24.033h8.359v8.359h15.673v-8.359h7.933V328.228z M432.161,240.457h-16.292
			v15.673h16.292v8.359H407.51v15.673h24.651v8.359h-47.639v15.673h-64.784v39.706h-39.706v88.816h-32.392v-96.131h-24.033v-40.751
			h-47.771v-15.673h23.738v-15.673h-23.738v-8.359h16.424v-15.673h-16.424v-8.49h256.324V240.457z M472.294,176.718h-24.033v15.673
			h24.033v240.327h-24.459V216.294H160.164v216.424h-15.968V312.556H63.739v120.163H39.706V192.391h24.033v-15.673H39.706V173.3
			L256,80.658L472.294,173.3V176.718z"/>
	</g>
</g>
<g>
	<g>
		<rect x="207.935" y="240.451" width="192.261" height="15.673"/>
	</g>
</g>
<g>
	<g>
		<rect x="207.935" y="264.484" width="15.673" height="15.673"/>
	</g>
</g>
<g>
	<g>
		<rect x="231.967" y="264.484" width="144.196" height="15.673"/>
	</g>
</g>
<g>
	<g>
		<rect x="383.478" y="264.484" width="16.718" height="15.673"/>
	</g>
</g>
<g>
	<g>
		<rect x="87.771" y="376.288" width="16.718" height="15.673"/>
	</g>
</g>
<g>
	<g>
		<path d="M64.166,216.294v79.672h79.672v-79.672H64.166z M96.131,280.293H79.84v-15.804h16.291V280.293z M96.131,248.817H79.84
			v-16.849h16.291V248.817z M128.165,280.293h-16.361v-15.804h16.361V280.293z M128.165,248.816h-16.361v-16.849h16.361V248.816z"/>
	</g>
</g>
<g>
	<g>
		<rect x="80.457" y="176.713" width="351.086" height="15.673"/>
	</g>
</g>
<g>
	<g>
		<path d="M378.574,152.685L256,95.484l-122.574,57.201h-13.263v15.673h271.673v-15.673H378.574z M200.62,152.685h-30.132
			l30.132-14.061V152.685z M247.641,152.685h-31.347V131.31l31.347-14.629V152.685z M295.706,152.685h-32.392v-36.492l32.392,15.117
			V152.685z M311.38,152.685v-14.061l30.131,14.061H311.38z"/>
	</g>
</g>
<g>
	<g>
		<rect x="304.065" y="408.68" width="15.673" height="15.673"/>
	</g>
</g>
</svg>
