<?xml version="1.0" encoding="iso-8859-1"?>
<!-- Uploaded to: SVG Repo, www.svgrepo.com, Generator: SVG Repo Mixer Tools -->
<svg fill="#000000" version="1.1" id="Layer_1" xmlns="http://www.w3.org/2000/svg" xmlns:xlink="http://www.w3.org/1999/xlink" 
	 viewBox="0 0 512 512" xml:space="preserve">
<g>
	<g>
		<path d="M488.016,420.236V155.373h8.342v-15.642h-23.984v8.342h-23.984v15.642h23.984v256.521h-25.026V299.275h-79.25v120.961
			h-16.279v-216.52H64.178v216.52H39.625V163.715h23.984v-15.642H39.625v-8.342H15.642v15.642h8.342v264.864H0v15.642h512v-15.642
			H488.016z M336.178,251.308H320.13v15.642h16.047v8.342H320.13v15.642h16.047v8.342H320.13v15.642h16.047v8.342H320.13V338.9
			h16.047v8.342H320.13v15.642h16.047v8.342H320.13v15.642h16.047v8.342h-24.389v15.642h24.389v9.385H79.82v-9.385h24.457V395.21
			H79.82v-8.342h16.115v-15.642H79.82v-8.342h16.115v-15.642H79.82V338.9h16.115v-15.642H79.82v-8.342h16.115v-15.642H79.82v-8.342
			h16.115v-15.642H79.82v-8.342h16.115v-15.642H79.82v-8.342h16.115v-15.642H79.82v-7.966h256.357v7.966H320.13v15.642h16.047
			V251.308z M431.707,420.236h-47.967v-105.32h47.967V420.236z"/>
	</g>
</g>
<g>
	<g>
		<rect x="104.277" y="347.242" width="207.511" height="15.642"/>
	</g>
</g>
<g>
	<g>
		<rect x="104.277" y="371.226" width="207.511" height="15.642"/>
	</g>
</g>
<g>
	<g>
		<rect x="104.277" y="323.259" width="207.511" height="15.642"/>
	</g>
</g>
<g>
	<g>
		<rect x="104.277" y="299.275" width="207.511" height="15.642"/>
	</g>
</g>
<g>
	<g>
		<rect x="104.277" y="275.291" width="207.511" height="15.642"/>
	</g>
</g>
<g>
	<g>
		<rect x="104.277" y="251.308" width="207.511" height="15.642"/>
	</g>
</g>
<g>
	<g>
		<rect x="104.277" y="227.324" width="207.511" height="15.642"/>
	</g>
</g>
<g>
	<g>
		<rect x="111.576" y="395.21" width="16.684" height="15.642"/>
	</g>
</g>
<g>
	<g>
		<rect x="135.56" y="395.21" width="144.945" height="15.642"/>
	</g>
</g>
<g>
	<g>
		<rect x="287.805" y="395.21" width="16.684" height="15.642"/>
	</g>
</g>
<g>
	<g>
		<rect x="392.081" y="363.927" width="15.642" height="15.642"/>
	</g>
</g>
<g>
	<g>
		<rect x="80.293" y="148.073" width="351.413" height="15.642"/>
	</g>
</g>
<g>
	<g>
		<path d="M368.177,243.716v47.641h79.642v-47.641H368.177z M432.177,275.717h-48.358v-16.359h48.358V275.717z"/>
	</g>
</g>
<g>
	<g>
		<path d="M0,76.122v55.267h512V76.122H0z M496.358,115.747H15.642V91.764h480.717V115.747z"/>
	</g>
</g>
</svg>